Coordinates
version=1
nRows=32
nColumns=12
inDegrees=yes

Units are S.I. units (second, meters, Newtons, ...)
Angles are in degrees

endheader
time	SC_y	SC_z	SC_x	AC_y	AC_z	AC_x	GH_y	GH_z	GH_yy	EL_x	PS_y
       0.0              -23.48          2.946           31.9          54.59         -16.39          6.672         -155.8           16.5          87.93          69.87          66.62
  0.004868              -23.48           2.95          31.91          54.59         -16.39          6.672         -155.7          16.51          87.93          69.87          66.61
  0.009736              -23.48          2.954          31.91          54.59         -16.39          6.672         -155.7          16.51          87.94          69.87           66.6
    0.0146              -23.48          2.959          31.92          54.59         -16.39          6.672         -155.7          16.52          87.95          69.87           66.6
   0.01947              -23.48          2.964          31.92          54.59         -16.38          6.672         -155.7          16.53          87.96          69.87          66.59
   0.02434              -23.48          2.969          31.93          54.59         -16.38          6.672         -155.7          16.54          87.96          69.87          66.58
   0.02921              -23.48          2.975          31.93          54.59         -16.38          6.672         -155.7          16.55          87.97          69.87          66.57
   0.03408              -23.48          2.981          31.94          54.59         -16.38          6.672         -155.7          16.55          87.98          69.87          66.56
   0.03894              -23.48          2.987          31.95          54.59         -16.38          6.672         -155.7          16.56          87.99          69.87          66.55
   0.04381              -23.47          2.994          31.95          54.59         -16.38          6.673         -155.7          16.57           88.0          69.87          66.54
   0.04868              -23.47          3.002          31.96          54.59         -16.38          6.673         -155.7          16.59          88.02          69.87          66.53
   0.05355              -23.47           3.01          31.97          54.59         -16.38          6.673         -155.7           16.6          88.03          69.87          66.52
   0.05842              -23.47          3.018          31.98          54.59         -16.38          6.673         -155.7          16.61          88.04          69.87           66.5
   0.06328              -23.47          3.027          31.99          54.59         -16.37          6.673         -155.7          16.63          88.06          69.87          66.49
   0.06815              -23.47          3.037           32.0          54.59         -16.37          6.674         -155.7          16.64          88.07          69.87          66.47
   0.07302              -23.47          3.048          32.01          54.59         -16.37          6.674         -155.7          16.66          88.09          69.87          66.45
   0.07789              -23.47           3.06          32.02          54.59         -16.37          6.674         -155.7          16.68          88.11          69.87          66.44
   0.08276              -23.46          3.073          32.03          54.59         -16.37          6.674         -155.7           16.7          88.13          69.87          66.41
   0.08762              -23.46          3.087          32.05          54.59         -16.36          6.675         -155.7          16.72          88.15          69.87          66.39
   0.09249              -23.46          3.103          32.06          54.59         -16.36          6.675         -155.7          16.74          88.18          69.87          66.37
   0.09736              -23.46           3.12          32.08          54.59         -16.36          6.675         -155.7          16.77          88.21          69.87          66.34
    0.1022              -23.45          3.138           32.1          54.59         -16.35          6.676         -155.7           16.8          88.24          69.86          66.31
    0.1071              -23.45          3.159          32.12          54.59         -16.35          6.676         -155.7          16.83          88.27          69.86          66.28
     0.112              -23.45          3.182          32.14          54.59         -16.35          6.677         -155.7          16.86          88.31          69.86          66.24
    0.1168              -23.45          3.207          32.17          54.59         -16.34          6.677         -155.7           16.9          88.35          69.86           66.2
    0.1217              -23.44          3.235           32.2          54.59         -16.34          6.678         -155.7          16.95          88.39          69.86          66.16
    0.1266              -23.44          3.267          32.23          54.59         -16.33          6.678         -155.7          16.99          88.44          69.86          66.11
    0.1314              -23.43          3.303          32.26          54.59         -16.32          6.679         -155.7          17.05           88.5          69.86          66.05
    0.1363              -23.43          3.343           32.3          54.59         -16.32           6.68         -155.7          17.11          88.57          69.85          65.98
    0.1412              -23.42          3.389          32.35          54.59         -16.31          6.681         -155.7          17.18          88.64          69.85          65.91
     0.146              -23.41          3.441           32.4          54.59          -16.3          6.682         -155.7          17.26          88.73          69.85          65.83
    0.1509              -23.41          3.501          32.46          54.59         -16.29          6.683         -155.6          17.35          88.82          69.84          65.73
